<?xml version="1.0" encoding="UTF-8"?>
<svg xmlns="http://www.w3.org/2000/svg" xmlns:xlink="http://www.w3.org/1999/xlink" width="48px" height="48px" viewBox="0 0 48 48" version="1.1">
<defs>
<radialGradient id="radial0" gradientUnits="userSpaceOnUse" cx="0.132861" cy="1.004724" fx="0.132861" fy="1.004724" r="1.305468" gradientTransform="matrix(48,0,0,48,0,0)">
<stop offset="0.09" style="stop-color:rgb(98.039216%,56.078431%,12.941176%);stop-opacity:1;"/>
<stop offset="0.78" style="stop-color:rgb(84.705882%,17.647059%,49.411765%);stop-opacity:1;"/>
</radialGradient>
</defs>
<g id="surface1">
<path style=" stroke:none;fill-rule:nonzero;fill:url(#radial0);" d="M 16 24 C 16 19.582031 19.582031 16 24 16 C 28.417969 16 32 19.582031 32 24 C 32 28.417969 28.417969 32 24 32 C 19.582031 32 16 28.417969 16 24 M 11.675781 24 C 11.675781 30.804688 17.195312 36.324219 24 36.324219 C 30.808594 36.324219 36.324219 30.804688 36.324219 24 C 36.324219 17.195312 30.808594 11.675781 24 11.675781 C 17.195312 11.675781 11.675781 17.195312 11.675781 24 M 33.933594 11.1875 C 33.933594 12.777344 35.222656 14.066406 36.8125 14.070312 C 38.402344 14.070312 39.691406 12.78125 39.691406 11.191406 C 39.695312 9.597656 38.40625 8.308594 36.8125 8.308594 C 35.222656 8.308594 33.933594 9.597656 33.933594 11.1875 M 14.304688 43.535156 C 11.964844 43.429688 10.691406 43.039062 9.847656 42.710938 C 8.726562 42.273438 7.925781 41.753906 7.085938 40.914062 C 6.246094 40.074219 5.726562 39.277344 5.292969 38.15625 C 4.960938 37.3125 4.574219 36.039062 4.464844 33.699219 C 4.347656 31.167969 4.328125 30.410156 4.328125 24 C 4.328125 17.589844 4.351562 16.832031 4.464844 14.300781 C 4.574219 11.960938 4.964844 10.691406 5.292969 9.84375 C 5.726562 8.722656 6.246094 7.925781 7.085938 7.082031 C 7.925781 6.242188 8.726562 5.722656 9.847656 5.289062 C 10.691406 4.960938 11.964844 4.570312 14.304688 4.464844 C 16.835938 4.347656 17.59375 4.324219 24 4.324219 C 30.40625 4.324219 31.167969 4.347656 33.699219 4.464844 C 36.039062 4.570312 37.308594 4.960938 38.15625 5.289062 C 39.277344 5.722656 40.078125 6.246094 40.917969 7.082031 C 41.757812 7.921875 42.277344 8.722656 42.714844 9.84375 C 43.042969 10.6875 43.433594 11.960938 43.539062 14.300781 C 43.65625 16.832031 43.679688 17.589844 43.679688 24 C 43.679688 30.410156 43.65625 31.167969 43.539062 33.699219 C 43.433594 36.039062 43.039062 37.3125 42.714844 38.15625 C 42.277344 39.277344 41.757812 40.074219 40.917969 40.914062 C 40.078125 41.753906 39.277344 42.273438 38.15625 42.710938 C 37.3125 43.039062 36.039062 43.429688 33.699219 43.535156 C 31.171875 43.652344 30.410156 43.675781 24 43.675781 C 17.589844 43.675781 16.832031 43.652344 14.304688 43.535156 M 14.105469 0.144531 C 11.550781 0.261719 9.804688 0.667969 8.28125 1.261719 C 6.699219 1.871094 5.363281 2.695312 4.027344 4.027344 C 2.691406 5.363281 1.871094 6.699219 1.261719 8.28125 C 0.667969 9.804688 0.261719 11.550781 0.144531 14.105469 C 0.0273438 16.664062 0 17.480469 0 24 C 0 30.519531 0.0273438 31.335938 0.144531 33.894531 C 0.261719 36.449219 0.667969 38.195312 1.261719 39.71875 C 1.871094 41.296875 2.691406 42.636719 4.027344 43.972656 C 5.363281 45.304688 6.699219 46.125 8.28125 46.738281 C 9.808594 47.332031 11.550781 47.738281 14.105469 47.855469 C 16.667969 47.972656 17.484375 48 24 48 C 30.519531 48 31.335938 47.972656 33.894531 47.855469 C 36.453125 47.738281 38.195312 47.332031 39.722656 46.738281 C 41.300781 46.125 42.636719 45.304688 43.972656 43.972656 C 45.308594 42.636719 46.128906 41.296875 46.742188 39.71875 C 47.335938 38.195312 47.742188 36.449219 47.855469 33.894531 C 47.972656 31.332031 48 30.519531 48 24 C 48 17.480469 47.972656 16.664062 47.855469 14.105469 C 47.738281 11.550781 47.335938 9.804688 46.742188 8.28125 C 46.128906 6.703125 45.308594 5.363281 43.972656 4.027344 C 42.640625 2.691406 41.300781 1.871094 39.722656 1.261719 C 38.195312 0.667969 36.449219 0.261719 33.898438 0.144531 C 31.339844 0.0273438 30.519531 0 24.003906 0 C 17.484375 0 16.667969 0.0273438 14.105469 0.144531 "/>
</g>
</svg>
