<?xml version="1.0" encoding="UTF-8"?>
<svg width="48" height="48" viewBox="0 0 48 48" fill="none" xmlns="http://www.w3.org/2000/svg">
<mask id="mask0_227_16" style="mask-type:luminance" maskUnits="userSpaceOnUse" x="0" y="11" width="48" height="26">
<path d="M0.667969 24.002C0.667969 30.7988 11.1133 36.3105 24 36.3105C36.8828 36.3105 47.332 30.7988 47.332 24.002C47.332 17.2012 36.8828 11.6895 24 11.6895C11.1133 11.6895 0.667969 17.2012 0.667969 24.002Z" fill="white"/>
</mask>
<g mask="url(#mask0_227_16)">
<path d="M0.667969 24.002C0.667969 30.7988 11.1133 36.3105 24 36.3105C36.8828 36.3105 47.332 30.7988 47.332 24.002C47.332 17.2012 36.8828 11.6895 24 11.6895C11.1133 11.6895 0.667969 17.2012 0.667969 24.002Z" fill="url(#paint0_radial_227_16)"/>
</g>
<path d="M24 35.3965C36.3828 35.3965 46.418 30.2949 46.418 24.002C46.418 17.7051 36.3828 12.6035 24 12.6035C11.6172 12.6035 1.57812 17.7051 1.57812 24.002C1.57812 30.2949 11.6172 35.3965 24 35.3965Z" fill="#777BB3"/>
<path d="M13.3436 25.4121C14.3632 25.4121 15.121 25.2246 15.6014 24.8535C16.078 24.4863 16.4061 23.8496 16.578 22.9629C16.7382 22.1309 16.6796 21.5527 16.3983 21.2402C16.1093 20.9199 15.4882 20.7598 14.5507 20.7598H12.9218L12.0194 25.4121H13.3436ZM8.02332 31.1465C7.94519 31.1465 7.87488 31.1113 7.82801 31.0527C7.77722 30.9941 7.75769 30.9199 7.77332 30.8457L10.1639 18.5098C10.1874 18.3887 10.2928 18.3027 10.4139 18.3027H15.5663C17.1835 18.3027 18.3905 18.7441 19.1483 19.6152C19.91 20.4902 20.1444 21.709 19.8475 23.248C19.7225 23.873 19.5155 24.4551 19.2264 24.9746C18.9374 25.4941 18.5507 25.9785 18.0858 26.4082C17.5272 26.9316 16.8944 27.3105 16.2108 27.5332C15.535 27.7559 14.6678 27.8691 13.6327 27.8691H11.5468L10.9491 30.9434C10.9257 31.0605 10.8241 31.1465 10.703 31.1465H8.02332Z" fill="black"/>
<path d="M13.133 21.0137H14.551C15.6838 21.0137 16.0744 21.2598 16.2112 21.4082C16.4299 21.6543 16.4729 22.1777 16.3322 22.9121C16.1721 23.7402 15.8752 24.3223 15.4494 24.6504C15.0119 24.9902 14.3049 25.1582 13.344 25.1582H12.3283L13.133 21.0137ZM15.5666 18.0488H10.4143C10.1721 18.0488 9.96115 18.2207 9.91428 18.459L7.52365 30.7949C7.49631 30.9434 7.53537 31.0996 7.63303 31.2168C7.72678 31.334 7.87131 31.4004 8.02365 31.4004H10.7033C10.9455 31.4004 11.1526 31.2285 11.1994 30.9902L11.7541 28.123H13.633C14.6955 28.123 15.5862 28.0059 16.2893 27.7754C17.008 27.541 17.6721 27.1426 18.258 26.5918C18.7463 26.1465 19.1447 25.6426 19.4455 25.0996C19.7502 24.5527 19.969 23.9473 20.094 23.2949C20.4065 21.6777 20.1526 20.3848 19.3362 19.4473C18.5315 18.5215 17.2619 18.0488 15.5666 18.0488ZM11.7151 25.666H13.344C14.426 25.666 15.2307 25.4629 15.758 25.0527C16.2854 24.6465 16.6447 23.9629 16.8283 23.0098C17.0041 22.0918 16.926 21.4473 16.5862 21.0684C16.2463 20.6934 15.5666 20.5059 14.551 20.5059H12.7151L11.7151 25.666ZM15.5666 18.5566C17.1135 18.5566 18.2463 18.9668 18.9572 19.7832C19.6682 20.5957 19.8791 21.7363 19.5979 23.1973C19.4807 23.8027 19.2815 24.3496 19.0041 24.8496C18.7268 25.3496 18.3635 25.8066 17.9143 26.2207C17.3791 26.7207 16.7854 27.0801 16.133 27.2949C15.4768 27.5059 14.6447 27.6152 13.633 27.6152H11.3362L10.7033 30.8926H8.02365L10.4143 18.5566H15.5666Z" fill="white"/>
<path d="M25.9882 27.8691C25.9139 27.8691 25.8436 27.834 25.7928 27.7754C25.746 27.7168 25.7264 27.6387 25.7421 27.5645L26.7968 22.1074C26.8983 21.5879 26.8749 21.2168 26.7264 21.0566C26.6405 20.9629 26.371 20.7988 25.578 20.7988H23.6639L22.3358 27.6621C22.3124 27.7793 22.2069 27.8691 22.0858 27.8691H19.4296C19.3514 27.8691 19.2811 27.834 19.2343 27.7754C19.1835 27.7168 19.1639 27.6387 19.1796 27.5645L21.5702 15.2285C21.5936 15.1113 21.6952 15.0254 21.8202 15.0254H24.4764C24.5507 15.0254 24.6249 15.0566 24.6718 15.1152C24.7186 15.1738 24.7382 15.252 24.7264 15.3262L24.1483 18.3027H26.2108C27.7772 18.3027 28.8436 18.5801 29.4647 19.1504C30.0975 19.7363 30.2928 20.666 30.0507 21.9199L28.9374 27.6621C28.9139 27.7793 28.8124 27.8691 28.6913 27.8691H25.9882Z" fill="black"/>
<path d="M24.4768 14.7715H21.8205C21.5744 14.7715 21.3674 14.9434 21.3205 15.1816L18.9299 27.5176C18.9026 27.666 18.9416 27.8184 19.0393 27.9355C19.133 28.0527 19.2776 28.123 19.4299 28.123H22.0862C22.3283 28.123 22.5354 27.9473 22.5822 27.709L23.8713 21.0527H25.5783C26.3713 21.0527 26.5354 21.2246 26.5432 21.2324C26.5901 21.2832 26.6526 21.5215 26.551 22.0566L25.4924 27.5176C25.4651 27.666 25.5041 27.8184 25.5979 27.9355C25.6955 28.0527 25.8362 28.123 25.9885 28.123H28.6916C28.9338 28.123 29.1408 27.9473 29.1877 27.709L30.2971 21.9707C30.5588 20.623 30.3362 19.6113 29.6369 18.9668C28.9651 18.3496 27.844 18.0488 26.2112 18.0488H24.4572L24.9729 15.373C25.0041 15.2246 24.9651 15.0723 24.8674 14.9551C24.7697 14.8379 24.6291 14.7715 24.4768 14.7715ZM24.4768 15.2793L23.8401 18.5566H26.2112C27.6994 18.5566 28.7268 18.8184 29.2932 19.3379C29.8596 19.8613 30.0276 20.7051 29.801 21.873L28.6916 27.6152H25.9885L27.0471 22.1543C27.1682 21.5332 27.1213 21.1113 26.9143 20.8848C26.7033 20.6582 26.2619 20.5449 25.5783 20.5449H23.4572L22.0862 27.6152H19.4299L21.8205 15.2793H24.4768Z" fill="white"/>
<path d="M34.2577 25.4121C35.2734 25.4121 36.0351 25.2246 36.5156 24.8535C36.9921 24.4863 37.3202 23.8496 37.4921 22.9629C37.6523 22.1309 37.5898 21.5527 37.3085 21.2402C37.0234 20.9199 36.4023 20.7598 35.4609 20.7598H33.8359L32.9335 25.4121H34.2577ZM28.9335 31.1465C28.8593 31.1465 28.789 31.1113 28.7382 31.0527C28.6913 30.9941 28.6718 30.9199 28.6874 30.8457L31.0781 18.5098C31.1015 18.3887 31.2031 18.3027 31.3241 18.3027H36.4765C38.0976 18.3027 39.3007 18.7441 40.0585 19.6152C40.8202 20.4902 41.0546 21.709 40.7577 23.248C40.6366 23.873 40.4296 24.4551 40.1406 24.9746C39.8476 25.4941 39.4648 25.9785 38.9999 26.4082C38.4413 26.9316 37.8085 27.3105 37.121 27.5332C36.4452 27.7559 35.5781 27.8691 34.5429 27.8691H32.457L31.8632 30.9434C31.8398 31.0605 31.7343 31.1465 31.6132 31.1465H28.9335Z" fill="black"/>
<path d="M34.0427 21.0137H35.4607C36.5935 21.0137 36.988 21.2598 37.1209 21.4082C37.3435 21.6543 37.3865 22.1777 37.2419 22.9121C37.0818 23.7402 36.7849 24.3223 36.3591 24.6504C35.9255 24.9902 35.2185 25.1582 34.2576 25.1582H33.2419L34.0427 21.0137ZM36.4763 18.0488H31.324C31.0818 18.0488 30.8748 18.2207 30.8279 18.459L28.4373 30.7949C28.4099 30.9434 28.449 31.0996 28.5427 31.2168C28.6404 31.334 28.7849 31.4004 28.9334 31.4004H31.613C31.8552 31.4004 32.0662 31.2285 32.1091 30.9902L32.6677 28.123H34.5427C35.6052 28.123 36.4998 28.0059 37.199 27.7754C37.9216 27.541 38.5857 27.1426 39.1716 26.5918C39.656 26.1465 40.0584 25.6426 40.3591 25.0996C40.6638 24.5527 40.8787 23.9473 41.0076 23.2949C41.3201 21.6777 41.0662 20.3848 40.2498 19.4473C39.4412 18.5215 38.1716 18.0488 36.4763 18.0488ZM32.6248 25.666H34.2576C35.3357 25.666 36.1404 25.4629 36.6677 25.0527C37.199 24.6465 37.5544 23.9629 37.7419 23.0098C37.9177 22.0918 37.8357 21.4473 37.4998 21.0684C37.1599 20.6934 36.4802 20.5059 35.4607 20.5059H33.6287L32.6248 25.666ZM36.4763 18.5566C38.0271 18.5566 39.156 18.9668 39.8669 19.7832C40.5779 20.5957 40.7927 21.7363 40.5115 23.1973C40.3943 23.8027 40.1951 24.3496 39.9177 24.8496C39.6404 25.3496 39.2771 25.8066 38.8279 26.2207C38.2927 26.7207 37.699 27.0801 37.0427 27.2949C36.3904 27.5059 35.5584 27.6152 34.5427 27.6152H32.2498L31.613 30.8926H28.9334L31.324 18.5566H36.4763Z" fill="white"/>
<defs>
<radialGradient id="paint0_radial_227_16" cx="0" cy="0" r="1" gradientUnits="userSpaceOnUse" gradientTransform="translate(14.6757 16.0183) scale(30.6378 30.7276)">
<stop stop-color="#AEB2D5"/>
<stop offset="0.3" stop-color="#AEB2D5"/>
<stop offset="0.75" stop-color="#484C89"/>
<stop offset="1" stop-color="#484C89"/>
</radialGradient>
</defs>
</svg>